<mxfile host="app.diagrams.net" modified="2022-12-24T20:54:57.103Z" agent="5.0 (X11)" etag="NyF47vMJ8n9MF93QcDZc" version="20.7.4" type="github">
  <diagram id="oCKAfChM0abNp4gRhXnB" name="Page-1">
    <mxGraphModel dx="880" dy="415" grid="0" gridSize="14" guides="1" tooltips="1" connect="1" arrows="1" fold="1" page="0" pageScale="1" pageWidth="850" pageHeight="1100" math="0" shadow="0">
      <root>
        <mxCell id="0" />
        <mxCell id="1" parent="0" />
        <mxCell id="nkRpddxa2Q62OwDhIQbE-1" value="https://sub.target.com" style="text;html=1;strokeColor=none;fillColor=none;align=center;verticalAlign=middle;whiteSpace=wrap;rounded=0;" parent="1" vertex="1">
          <mxGeometry x="365" y="20" width="60" height="30" as="geometry" />
        </mxCell>
        <mxCell id="nkRpddxa2Q62OwDhIQbE-2" value="" style="endArrow=classic;html=1;rounded=0;exitX=0.5;exitY=1;exitDx=0;exitDy=0;" parent="1" source="nkRpddxa2Q62OwDhIQbE-1" target="nkRpddxa2Q62OwDhIQbE-3" edge="1">
          <mxGeometry width="50" height="50" relative="1" as="geometry">
            <mxPoint x="400" y="250" as="sourcePoint" />
            <mxPoint x="395" y="80" as="targetPoint" />
          </mxGeometry>
        </mxCell>
        <mxCell id="nkRpddxa2Q62OwDhIQbE-3" value="crawler class" style="swimlane;fontStyle=0;childLayout=stackLayout;horizontal=1;startSize=30;horizontalStack=0;resizeParent=1;resizeParentMax=0;resizeLast=0;collapsible=1;marginBottom=0;whiteSpace=wrap;html=1;fillColor=default;" parent="1" vertex="1">
          <mxGeometry x="117.5" y="60" width="555" height="210" as="geometry" />
        </mxCell>
        <mxCell id="nkRpddxa2Q62OwDhIQbE-4" value="&lt;font style=&quot;font-size: 15px;&quot;&gt;self.headers = {....}&lt;/font&gt;" style="text;strokeColor=none;fillColor=none;align=left;verticalAlign=middle;spacingLeft=4;spacingRight=4;overflow=hidden;points=[[0,0.5],[1,0.5]];portConstraint=eastwest;rotatable=0;whiteSpace=wrap;html=1;" parent="nkRpddxa2Q62OwDhIQbE-3" vertex="1">
          <mxGeometry y="30" width="555" height="30" as="geometry" />
        </mxCell>
        <mxCell id="lDg8OlPheuPbTZeStL0n-1" value="&lt;div style=&quot;font-size: 14px;&quot;&gt;&lt;font style=&quot;font-size: 14px;&quot;&gt;self.endpoints = []&lt;br&gt;&lt;/font&gt;&lt;/div&gt;" style="text;strokeColor=none;fillColor=none;align=left;verticalAlign=middle;spacingLeft=4;spacingRight=4;overflow=hidden;points=[[0,0.5],[1,0.5]];portConstraint=eastwest;rotatable=0;whiteSpace=wrap;html=1;" vertex="1" parent="nkRpddxa2Q62OwDhIQbE-3">
          <mxGeometry y="60" width="555" height="30" as="geometry" />
        </mxCell>
        <mxCell id="lDg8OlPheuPbTZeStL0n-4" value="&lt;div style=&quot;font-family: &amp;quot;Droid Sans Mono&amp;quot;, &amp;quot;monospace&amp;quot;, monospace; font-size: 14px; line-height: 19px;&quot; align=&quot;left&quot;&gt;&lt;div&gt;&lt;span style=&quot;background-color: rgb(255, 255, 255);&quot;&gt;self.seen_endpoints = set()&lt;/span&gt;&lt;/div&gt;&lt;/div&gt;" style="text;strokeColor=none;fillColor=none;align=left;verticalAlign=middle;spacingLeft=4;spacingRight=4;overflow=hidden;points=[[0,0.5],[1,0.5]];portConstraint=eastwest;rotatable=0;whiteSpace=wrap;html=1;" vertex="1" parent="nkRpddxa2Q62OwDhIQbE-3">
          <mxGeometry y="90" width="555" height="30" as="geometry" />
        </mxCell>
        <mxCell id="lDg8OlPheuPbTZeStL0n-3" value="&lt;div style=&quot;font-family: &amp;quot;Droid Sans Mono&amp;quot;, &amp;quot;monospace&amp;quot;, monospace; font-size: 14px; line-height: 19px;&quot; align=&quot;left&quot;&gt;&lt;div&gt;&lt;span style=&quot;background-color: rgb(255, 255, 255);&quot;&gt;self.parameters = []&lt;/span&gt;&lt;/div&gt;&lt;/div&gt;" style="text;strokeColor=none;fillColor=none;align=left;verticalAlign=middle;spacingLeft=4;spacingRight=4;overflow=hidden;points=[[0,0.5],[1,0.5]];portConstraint=eastwest;rotatable=0;whiteSpace=wrap;html=1;" vertex="1" parent="nkRpddxa2Q62OwDhIQbE-3">
          <mxGeometry y="120" width="555" height="30" as="geometry" />
        </mxCell>
        <mxCell id="lDg8OlPheuPbTZeStL0n-2" value="&lt;div style=&quot;font-family: &amp;quot;Droid Sans Mono&amp;quot;, &amp;quot;monospace&amp;quot;, monospace; font-weight: normal; font-size: 14px; line-height: 19px;&quot;&gt;&lt;div&gt;&lt;span style=&quot;background-color: rgb(255, 255, 255);&quot;&gt;self.seen_parameters = set()&lt;/span&gt;&lt;/div&gt;&lt;/div&gt;" style="text;strokeColor=none;fillColor=none;align=left;verticalAlign=middle;spacingLeft=4;spacingRight=4;overflow=hidden;points=[[0,0.5],[1,0.5]];portConstraint=eastwest;rotatable=0;whiteSpace=wrap;html=1;" vertex="1" parent="nkRpddxa2Q62OwDhIQbE-3">
          <mxGeometry y="150" width="555" height="30" as="geometry" />
        </mxCell>
        <mxCell id="lDg8OlPheuPbTZeStL0n-5" value="&lt;div style=&quot;font-family: &amp;quot;Droid Sans Mono&amp;quot;, &amp;quot;monospace&amp;quot;, monospace; font-weight: normal; font-size: 14px; line-height: 19px;&quot;&gt;&lt;div&gt;&lt;span style=&quot;background-color: rgb(255, 255, 255);&quot;&gt;self.session = requests.Session()&lt;/span&gt;&lt;/div&gt;&lt;/div&gt;" style="text;strokeColor=none;fillColor=none;align=left;verticalAlign=middle;spacingLeft=4;spacingRight=4;overflow=hidden;points=[[0,0.5],[1,0.5]];portConstraint=eastwest;rotatable=0;whiteSpace=wrap;html=1;" vertex="1" parent="nkRpddxa2Q62OwDhIQbE-3">
          <mxGeometry y="180" width="555" height="30" as="geometry" />
        </mxCell>
        <mxCell id="nkRpddxa2Q62OwDhIQbE-22" value="collect_endpoints(url)" style="shape=table;startSize=30;container=1;collapsible=1;childLayout=tableLayout;fixedRows=1;rowLines=0;fontStyle=1;align=center;resizeLast=1;fillColor=default;" parent="1" vertex="1">
          <mxGeometry x="49.63" y="303" width="690.75" height="368" as="geometry" />
        </mxCell>
        <mxCell id="nkRpddxa2Q62OwDhIQbE-23" value="" style="shape=tableRow;horizontal=0;startSize=0;swimlaneHead=0;swimlaneBody=0;fillColor=none;collapsible=0;dropTarget=0;points=[[0,0.5],[1,0.5]];portConstraint=eastwest;top=0;left=0;right=0;bottom=1;" parent="nkRpddxa2Q62OwDhIQbE-22" vertex="1">
          <mxGeometry y="30" width="690.75" height="30" as="geometry" />
        </mxCell>
        <mxCell id="nkRpddxa2Q62OwDhIQbE-24" value="var" style="shape=partialRectangle;connectable=0;fillColor=none;top=0;left=0;bottom=0;right=0;fontStyle=1;overflow=hidden;" parent="nkRpddxa2Q62OwDhIQbE-23" vertex="1">
          <mxGeometry width="92.75" height="30" as="geometry">
            <mxRectangle width="92.75" height="30" as="alternateBounds" />
          </mxGeometry>
        </mxCell>
        <mxCell id="nkRpddxa2Q62OwDhIQbE-25" value="value in code" style="shape=partialRectangle;connectable=0;fillColor=none;top=0;left=0;bottom=0;right=0;align=left;spacingLeft=6;fontStyle=5;overflow=hidden;" parent="nkRpddxa2Q62OwDhIQbE-23" vertex="1">
          <mxGeometry x="92.75" width="230.25" height="30" as="geometry">
            <mxRectangle width="230.25" height="30" as="alternateBounds" />
          </mxGeometry>
        </mxCell>
        <mxCell id="nkRpddxa2Q62OwDhIQbE-41" value="value" style="shape=partialRectangle;connectable=0;fillColor=none;top=0;left=0;bottom=0;right=0;align=left;spacingLeft=6;fontStyle=5;overflow=hidden;" parent="nkRpddxa2Q62OwDhIQbE-23" vertex="1">
          <mxGeometry x="323" width="367.75" height="30" as="geometry">
            <mxRectangle width="367.75" height="30" as="alternateBounds" />
          </mxGeometry>
        </mxCell>
        <mxCell id="lDg8OlPheuPbTZeStL0n-6" style="shape=tableRow;horizontal=0;startSize=0;swimlaneHead=0;swimlaneBody=0;fillColor=none;collapsible=0;dropTarget=0;points=[[0,0.5],[1,0.5]];portConstraint=eastwest;top=0;left=0;right=0;bottom=0;" vertex="1" parent="nkRpddxa2Q62OwDhIQbE-22">
          <mxGeometry y="60" width="690.75" height="32" as="geometry" />
        </mxCell>
        <mxCell id="lDg8OlPheuPbTZeStL0n-7" value="scheme" style="shape=partialRectangle;connectable=0;fillColor=none;top=0;left=0;bottom=0;right=0;editable=1;overflow=hidden;" vertex="1" parent="lDg8OlPheuPbTZeStL0n-6">
          <mxGeometry width="92.75" height="32" as="geometry">
            <mxRectangle width="92.75" height="32" as="alternateBounds" />
          </mxGeometry>
        </mxCell>
        <mxCell id="lDg8OlPheuPbTZeStL0n-8" value="urlparse(url).scheme or &quot;https&quot;" style="shape=partialRectangle;connectable=0;fillColor=none;top=0;left=0;bottom=0;right=0;align=left;spacingLeft=6;overflow=hidden;" vertex="1" parent="lDg8OlPheuPbTZeStL0n-6">
          <mxGeometry x="92.75" width="230.25" height="32" as="geometry">
            <mxRectangle width="230.25" height="32" as="alternateBounds" />
          </mxGeometry>
        </mxCell>
        <mxCell id="lDg8OlPheuPbTZeStL0n-9" value="https" style="shape=partialRectangle;connectable=0;fillColor=none;top=0;left=0;bottom=0;right=0;align=left;spacingLeft=6;overflow=hidden;" vertex="1" parent="lDg8OlPheuPbTZeStL0n-6">
          <mxGeometry x="323" width="367.75" height="32" as="geometry">
            <mxRectangle width="367.75" height="32" as="alternateBounds" />
          </mxGeometry>
        </mxCell>
        <mxCell id="lDg8OlPheuPbTZeStL0n-10" style="shape=tableRow;horizontal=0;startSize=0;swimlaneHead=0;swimlaneBody=0;fillColor=none;collapsible=0;dropTarget=0;points=[[0,0.5],[1,0.5]];portConstraint=eastwest;top=0;left=0;right=0;bottom=0;" vertex="1" parent="nkRpddxa2Q62OwDhIQbE-22">
          <mxGeometry y="92" width="690.75" height="32" as="geometry" />
        </mxCell>
        <mxCell id="lDg8OlPheuPbTZeStL0n-11" value="parsed_domain" style="shape=partialRectangle;connectable=0;fillColor=none;top=0;left=0;bottom=0;right=0;editable=1;overflow=hidden;" vertex="1" parent="lDg8OlPheuPbTZeStL0n-10">
          <mxGeometry width="92.75" height="32" as="geometry">
            <mxRectangle width="92.75" height="32" as="alternateBounds" />
          </mxGeometry>
        </mxCell>
        <mxCell id="lDg8OlPheuPbTZeStL0n-12" value="tldextract.extract(url)" style="shape=partialRectangle;connectable=0;fillColor=none;top=0;left=0;bottom=0;right=0;align=left;spacingLeft=6;overflow=hidden;" vertex="1" parent="lDg8OlPheuPbTZeStL0n-10">
          <mxGeometry x="92.75" width="230.25" height="32" as="geometry">
            <mxRectangle width="230.25" height="32" as="alternateBounds" />
          </mxGeometry>
        </mxCell>
        <mxCell id="lDg8OlPheuPbTZeStL0n-13" value="ExtractResult(subdomain=&#39;sub&#39;, domain=&#39;target&#39;, suffix=&#39;com&#39;)" style="shape=partialRectangle;connectable=0;fillColor=none;top=0;left=0;bottom=0;right=0;align=left;spacingLeft=6;overflow=hidden;" vertex="1" parent="lDg8OlPheuPbTZeStL0n-10">
          <mxGeometry x="323" width="367.75" height="32" as="geometry">
            <mxRectangle width="367.75" height="32" as="alternateBounds" />
          </mxGeometry>
        </mxCell>
        <mxCell id="lDg8OlPheuPbTZeStL0n-14" style="shape=tableRow;horizontal=0;startSize=0;swimlaneHead=0;swimlaneBody=0;fillColor=none;collapsible=0;dropTarget=0;points=[[0,0.5],[1,0.5]];portConstraint=eastwest;top=0;left=0;right=0;bottom=0;" vertex="1" parent="nkRpddxa2Q62OwDhIQbE-22">
          <mxGeometry y="124" width="690.75" height="32" as="geometry" />
        </mxCell>
        <mxCell id="lDg8OlPheuPbTZeStL0n-15" value="domain" style="shape=partialRectangle;connectable=0;fillColor=none;top=0;left=0;bottom=0;right=0;editable=1;overflow=hidden;" vertex="1" parent="lDg8OlPheuPbTZeStL0n-14">
          <mxGeometry width="92.75" height="32" as="geometry">
            <mxRectangle width="92.75" height="32" as="alternateBounds" />
          </mxGeometry>
        </mxCell>
        <mxCell id="lDg8OlPheuPbTZeStL0n-16" value="subdomain + domain + suffix&#xa;" style="shape=partialRectangle;connectable=0;fillColor=none;top=0;left=0;bottom=0;right=0;align=left;spacingLeft=6;overflow=hidden;" vertex="1" parent="lDg8OlPheuPbTZeStL0n-14">
          <mxGeometry x="92.75" width="230.25" height="32" as="geometry">
            <mxRectangle width="230.25" height="32" as="alternateBounds" />
          </mxGeometry>
        </mxCell>
        <mxCell id="lDg8OlPheuPbTZeStL0n-17" value="sub.target.com" style="shape=partialRectangle;connectable=0;fillColor=none;top=0;left=0;bottom=0;right=0;align=left;spacingLeft=6;overflow=hidden;" vertex="1" parent="lDg8OlPheuPbTZeStL0n-14">
          <mxGeometry x="323" width="367.75" height="32" as="geometry">
            <mxRectangle width="367.75" height="32" as="alternateBounds" />
          </mxGeometry>
        </mxCell>
        <mxCell id="nkRpddxa2Q62OwDhIQbE-26" value="" style="shape=tableRow;horizontal=0;startSize=0;swimlaneHead=0;swimlaneBody=0;fillColor=none;collapsible=0;dropTarget=0;points=[[0,0.5],[1,0.5]];portConstraint=eastwest;top=0;left=0;right=0;bottom=0;" parent="nkRpddxa2Q62OwDhIQbE-22" vertex="1">
          <mxGeometry y="156" width="690.75" height="32" as="geometry" />
        </mxCell>
        <mxCell id="nkRpddxa2Q62OwDhIQbE-27" value="r" style="shape=partialRectangle;connectable=0;fillColor=none;top=0;left=0;bottom=0;right=0;editable=1;overflow=hidden;" parent="nkRpddxa2Q62OwDhIQbE-26" vertex="1">
          <mxGeometry width="92.75" height="32" as="geometry">
            <mxRectangle width="92.75" height="32" as="alternateBounds" />
          </mxGeometry>
        </mxCell>
        <mxCell id="nkRpddxa2Q62OwDhIQbE-28" value="session.get( url , headers=headers)" style="shape=partialRectangle;connectable=0;fillColor=none;top=0;left=0;bottom=0;right=0;align=left;spacingLeft=6;overflow=hidden;" parent="nkRpddxa2Q62OwDhIQbE-26" vertex="1">
          <mxGeometry x="92.75" width="230.25" height="32" as="geometry">
            <mxRectangle width="230.25" height="32" as="alternateBounds" />
          </mxGeometry>
        </mxCell>
        <mxCell id="nkRpddxa2Q62OwDhIQbE-42" value="sub.target.com &gt;&gt; response" style="shape=partialRectangle;connectable=0;fillColor=none;top=0;left=0;bottom=0;right=0;align=left;spacingLeft=6;overflow=hidden;" parent="nkRpddxa2Q62OwDhIQbE-26" vertex="1">
          <mxGeometry x="323" width="367.75" height="32" as="geometry">
            <mxRectangle width="367.75" height="32" as="alternateBounds" />
          </mxGeometry>
        </mxCell>
        <mxCell id="nkRpddxa2Q62OwDhIQbE-29" value="" style="shape=tableRow;horizontal=0;startSize=0;swimlaneHead=0;swimlaneBody=0;fillColor=none;collapsible=0;dropTarget=0;points=[[0,0.5],[1,0.5]];portConstraint=eastwest;top=0;left=0;right=0;bottom=0;" parent="nkRpddxa2Q62OwDhIQbE-22" vertex="1">
          <mxGeometry y="188" width="690.75" height="30" as="geometry" />
        </mxCell>
        <mxCell id="nkRpddxa2Q62OwDhIQbE-30" value="soup" style="shape=partialRectangle;connectable=0;fillColor=none;top=0;left=0;bottom=0;right=0;editable=1;overflow=hidden;" parent="nkRpddxa2Q62OwDhIQbE-29" vertex="1">
          <mxGeometry width="92.75" height="30" as="geometry">
            <mxRectangle width="92.75" height="30" as="alternateBounds" />
          </mxGeometry>
        </mxCell>
        <mxCell id="nkRpddxa2Q62OwDhIQbE-31" value="BeautifulSoup(r.text, &#39;html.parser&#39;)" style="shape=partialRectangle;connectable=0;fillColor=none;top=0;left=0;bottom=0;right=0;align=left;spacingLeft=6;overflow=hidden;" parent="nkRpddxa2Q62OwDhIQbE-29" vertex="1">
          <mxGeometry x="92.75" width="230.25" height="30" as="geometry">
            <mxRectangle width="230.25" height="30" as="alternateBounds" />
          </mxGeometry>
        </mxCell>
        <mxCell id="nkRpddxa2Q62OwDhIQbE-43" value="sub.target.com &gt;&gt; HTML body" style="shape=partialRectangle;connectable=0;fillColor=none;top=0;left=0;bottom=0;right=0;align=left;spacingLeft=6;overflow=hidden;" parent="nkRpddxa2Q62OwDhIQbE-29" vertex="1">
          <mxGeometry x="323" width="367.75" height="30" as="geometry">
            <mxRectangle width="367.75" height="30" as="alternateBounds" />
          </mxGeometry>
        </mxCell>
        <mxCell id="nkRpddxa2Q62OwDhIQbE-61" style="shape=tableRow;horizontal=0;startSize=0;swimlaneHead=0;swimlaneBody=0;fillColor=none;collapsible=0;dropTarget=0;points=[[0,0.5],[1,0.5]];portConstraint=eastwest;top=0;left=0;right=0;bottom=0;" parent="nkRpddxa2Q62OwDhIQbE-22" vertex="1">
          <mxGeometry y="218" width="690.75" height="30" as="geometry" />
        </mxCell>
        <mxCell id="nkRpddxa2Q62OwDhIQbE-62" value="href_tags" style="shape=partialRectangle;connectable=0;fillColor=none;top=0;left=0;bottom=0;right=0;editable=1;overflow=hidden;" parent="nkRpddxa2Q62OwDhIQbE-61" vertex="1">
          <mxGeometry width="92.75" height="30" as="geometry">
            <mxRectangle width="92.75" height="30" as="alternateBounds" />
          </mxGeometry>
        </mxCell>
        <mxCell id="nkRpddxa2Q62OwDhIQbE-63" value="soup.find_all(href = True)" style="shape=partialRectangle;connectable=0;fillColor=none;top=0;left=0;bottom=0;right=0;align=left;spacingLeft=6;overflow=hidden;" parent="nkRpddxa2Q62OwDhIQbE-61" vertex="1">
          <mxGeometry x="92.75" width="230.25" height="30" as="geometry">
            <mxRectangle width="230.25" height="30" as="alternateBounds" />
          </mxGeometry>
        </mxCell>
        <mxCell id="nkRpddxa2Q62OwDhIQbE-64" value="all tags containing href" style="shape=partialRectangle;connectable=0;fillColor=none;top=0;left=0;bottom=0;right=0;align=left;spacingLeft=6;overflow=hidden;" parent="nkRpddxa2Q62OwDhIQbE-61" vertex="1">
          <mxGeometry x="323" width="367.75" height="30" as="geometry">
            <mxRectangle width="367.75" height="30" as="alternateBounds" />
          </mxGeometry>
        </mxCell>
        <mxCell id="nkRpddxa2Q62OwDhIQbE-57" style="shape=tableRow;horizontal=0;startSize=0;swimlaneHead=0;swimlaneBody=0;fillColor=none;collapsible=0;dropTarget=0;points=[[0,0.5],[1,0.5]];portConstraint=eastwest;top=0;left=0;right=0;bottom=0;" parent="nkRpddxa2Q62OwDhIQbE-22" vertex="1">
          <mxGeometry y="248" width="690.75" height="30" as="geometry" />
        </mxCell>
        <mxCell id="nkRpddxa2Q62OwDhIQbE-58" value="src_tags" style="shape=partialRectangle;connectable=0;fillColor=none;top=0;left=0;bottom=0;right=0;editable=1;overflow=hidden;" parent="nkRpddxa2Q62OwDhIQbE-57" vertex="1">
          <mxGeometry width="92.75" height="30" as="geometry">
            <mxRectangle width="92.75" height="30" as="alternateBounds" />
          </mxGeometry>
        </mxCell>
        <mxCell id="nkRpddxa2Q62OwDhIQbE-59" value="soup.find_all(src = True)" style="shape=partialRectangle;connectable=0;fillColor=none;top=0;left=0;bottom=0;right=0;align=left;spacingLeft=6;overflow=hidden;" parent="nkRpddxa2Q62OwDhIQbE-57" vertex="1">
          <mxGeometry x="92.75" width="230.25" height="30" as="geometry">
            <mxRectangle width="230.25" height="30" as="alternateBounds" />
          </mxGeometry>
        </mxCell>
        <mxCell id="nkRpddxa2Q62OwDhIQbE-60" value="all tags containing src" style="shape=partialRectangle;connectable=0;fillColor=none;top=0;left=0;bottom=0;right=0;align=left;spacingLeft=6;overflow=hidden;" parent="nkRpddxa2Q62OwDhIQbE-57" vertex="1">
          <mxGeometry x="323" width="367.75" height="30" as="geometry">
            <mxRectangle width="367.75" height="30" as="alternateBounds" />
          </mxGeometry>
        </mxCell>
        <mxCell id="nkRpddxa2Q62OwDhIQbE-53" style="shape=tableRow;horizontal=0;startSize=0;swimlaneHead=0;swimlaneBody=0;fillColor=none;collapsible=0;dropTarget=0;points=[[0,0.5],[1,0.5]];portConstraint=eastwest;top=0;left=0;right=0;bottom=0;" parent="nkRpddxa2Q62OwDhIQbE-22" vertex="1">
          <mxGeometry y="278" width="690.75" height="30" as="geometry" />
        </mxCell>
        <mxCell id="nkRpddxa2Q62OwDhIQbE-54" value="froms" style="shape=partialRectangle;connectable=0;fillColor=none;top=0;left=0;bottom=0;right=0;editable=1;overflow=hidden;" parent="nkRpddxa2Q62OwDhIQbE-53" vertex="1">
          <mxGeometry width="92.75" height="30" as="geometry">
            <mxRectangle width="92.75" height="30" as="alternateBounds" />
          </mxGeometry>
        </mxCell>
        <mxCell id="nkRpddxa2Q62OwDhIQbE-55" value="soup.find_all(&#39;form&#39;)" style="shape=partialRectangle;connectable=0;fillColor=none;top=0;left=0;bottom=0;right=0;align=left;spacingLeft=6;overflow=hidden;" parent="nkRpddxa2Q62OwDhIQbE-53" vertex="1">
          <mxGeometry x="92.75" width="230.25" height="30" as="geometry">
            <mxRectangle width="230.25" height="30" as="alternateBounds" />
          </mxGeometry>
        </mxCell>
        <mxCell id="nkRpddxa2Q62OwDhIQbE-56" value="all forms" style="shape=partialRectangle;connectable=0;fillColor=none;top=0;left=0;bottom=0;right=0;align=left;spacingLeft=6;overflow=hidden;" parent="nkRpddxa2Q62OwDhIQbE-53" vertex="1">
          <mxGeometry x="323" width="367.75" height="30" as="geometry">
            <mxRectangle width="367.75" height="30" as="alternateBounds" />
          </mxGeometry>
        </mxCell>
        <mxCell id="lDg8OlPheuPbTZeStL0n-26" style="shape=tableRow;horizontal=0;startSize=0;swimlaneHead=0;swimlaneBody=0;fillColor=none;collapsible=0;dropTarget=0;points=[[0,0.5],[1,0.5]];portConstraint=eastwest;top=0;left=0;right=0;bottom=0;" vertex="1" parent="nkRpddxa2Q62OwDhIQbE-22">
          <mxGeometry y="308" width="690.75" height="30" as="geometry" />
        </mxCell>
        <mxCell id="lDg8OlPheuPbTZeStL0n-27" value="metas" style="shape=partialRectangle;connectable=0;fillColor=none;top=0;left=0;bottom=0;right=0;editable=1;overflow=hidden;" vertex="1" parent="lDg8OlPheuPbTZeStL0n-26">
          <mxGeometry width="92.75" height="30" as="geometry">
            <mxRectangle width="92.75" height="30" as="alternateBounds" />
          </mxGeometry>
        </mxCell>
        <mxCell id="lDg8OlPheuPbTZeStL0n-28" value="soup.find_all(&#39;metas&#39;)" style="shape=partialRectangle;connectable=0;fillColor=none;top=0;left=0;bottom=0;right=0;align=left;spacingLeft=6;overflow=hidden;" vertex="1" parent="lDg8OlPheuPbTZeStL0n-26">
          <mxGeometry x="92.75" width="230.25" height="30" as="geometry">
            <mxRectangle width="230.25" height="30" as="alternateBounds" />
          </mxGeometry>
        </mxCell>
        <mxCell id="lDg8OlPheuPbTZeStL0n-29" value="all meta tags" style="shape=partialRectangle;connectable=0;fillColor=none;top=0;left=0;bottom=0;right=0;align=left;spacingLeft=6;overflow=hidden;" vertex="1" parent="lDg8OlPheuPbTZeStL0n-26">
          <mxGeometry x="323" width="367.75" height="30" as="geometry">
            <mxRectangle width="367.75" height="30" as="alternateBounds" />
          </mxGeometry>
        </mxCell>
        <mxCell id="lDg8OlPheuPbTZeStL0n-22" style="shape=tableRow;horizontal=0;startSize=0;swimlaneHead=0;swimlaneBody=0;fillColor=none;collapsible=0;dropTarget=0;points=[[0,0.5],[1,0.5]];portConstraint=eastwest;top=0;left=0;right=0;bottom=0;" vertex="1" parent="nkRpddxa2Q62OwDhIQbE-22">
          <mxGeometry y="338" width="690.75" height="30" as="geometry" />
        </mxCell>
        <mxCell id="lDg8OlPheuPbTZeStL0n-23" value="commints" style="shape=partialRectangle;connectable=0;fillColor=none;top=0;left=0;bottom=0;right=0;editable=1;overflow=hidden;" vertex="1" parent="lDg8OlPheuPbTZeStL0n-22">
          <mxGeometry width="92.75" height="30" as="geometry">
            <mxRectangle width="92.75" height="30" as="alternateBounds" />
          </mxGeometry>
        </mxCell>
        <mxCell id="lDg8OlPheuPbTZeStL0n-24" value="soup.find_all(&#39;commet&#39;)" style="shape=partialRectangle;connectable=0;fillColor=none;top=0;left=0;bottom=0;right=0;align=left;spacingLeft=6;overflow=hidden;" vertex="1" parent="lDg8OlPheuPbTZeStL0n-22">
          <mxGeometry x="92.75" width="230.25" height="30" as="geometry">
            <mxRectangle width="230.25" height="30" as="alternateBounds" />
          </mxGeometry>
        </mxCell>
        <mxCell id="lDg8OlPheuPbTZeStL0n-25" value="all comments" style="shape=partialRectangle;connectable=0;fillColor=none;top=0;left=0;bottom=0;right=0;align=left;spacingLeft=6;overflow=hidden;" vertex="1" parent="lDg8OlPheuPbTZeStL0n-22">
          <mxGeometry x="323" width="367.75" height="30" as="geometry">
            <mxRectangle width="367.75" height="30" as="alternateBounds" />
          </mxGeometry>
        </mxCell>
        <mxCell id="lDg8OlPheuPbTZeStL0n-34" style="edgeStyle=orthogonalEdgeStyle;rounded=0;orthogonalLoop=1;jettySize=auto;html=1;entryX=0;entryY=0.5;entryDx=0;entryDy=0;fontSize=17;fontColor=#000000;" edge="1" parent="1" source="nkRpddxa2Q62OwDhIQbE-4" target="nkRpddxa2Q62OwDhIQbE-26">
          <mxGeometry relative="1" as="geometry">
            <Array as="points">
              <mxPoint x="30" y="105" />
              <mxPoint x="30" y="475" />
            </Array>
          </mxGeometry>
        </mxCell>
        <mxCell id="lDg8OlPheuPbTZeStL0n-35" style="edgeStyle=orthogonalEdgeStyle;rounded=0;orthogonalLoop=1;jettySize=auto;html=1;fontSize=17;fontColor=#000000;" edge="1" parent="1" source="lDg8OlPheuPbTZeStL0n-5" target="nkRpddxa2Q62OwDhIQbE-26">
          <mxGeometry relative="1" as="geometry">
            <Array as="points">
              <mxPoint x="30" y="255" />
              <mxPoint x="30" y="475" />
            </Array>
          </mxGeometry>
        </mxCell>
      </root>
    </mxGraphModel>
  </diagram>
</mxfile>
